<svg xmlns="http://www.w3.org/2000/svg" width="320" height="140" viewBox="0 0 320 140"><path d="M31.129,56.487V62H19.24V83.629H12.513V62H.624V56.487ZM182.5,50.407q-.528,1.815-.959,3.668h11.381q.52-1.86,1.158-3.668a59,59,0,0,1,111.281,0h11.58a70.025,70.025,0,0,0-134.441,0Zm29.322,6.08H180.061v5.4h21.784L188,72.326l-7.935,5.983v5.32h31.756V78.192H190.776l21.041-16.229V56.487Zm4.811,0V83.629h28.863V78.192H223.355V72.326h21.433V66.89H223.355V61.883h22.136v-5.4Zm64.1,4.478-.029-.071.029.071Zm-30.584-4.478V83.629h6.806V75.534h13.335q4.617,0,4.616,3.871v4.224h6.766V78a10.6,10.6,0,0,0-.244-2.483l-.006-.022,0-.016v-.005l0-.014,0-.009a4.488,4.488,0,0,0-.365-.991c-.025-.048-.053-.1-.079-.143h0l0,0-.006-.01v0l0,0,0,0,0,0,0-.008h0l0,0,0,0,0-.007h0v-.006h0l0,0,0,0,0,0,0,0,0,0a3.172,3.172,0,0,0-1.756-1.409l.118-.072.043-.027.009-.007.009,0,.02-.013.005,0,0,0a4.02,4.02,0,0,0,1.617-2.1V70.6l0,0,0-.006,0,0,0-.01h0l0-.006,0,0,0-.006v0l0,0,0,0,0-.006,0,0v0l0,0v0l0-.01,0,0,.01-.029v-.005l.009-.029,0-.012a18.74,18.74,0,0,0,.348-5.265,11.557,11.557,0,0,0-.665-4.2l-.029-.071-.025-.061,0-.011a5.68,5.68,0,0,0-2.412-2.871l-.013-.008,0,0-.022-.013,0,0,0,0,0,0-.034-.021c-1.7-1.024-4.071-1.412-7.066-1.412Zm30.229,3.707-.031-.055.02.036.011.019Zm-.091-.163-.032-.053.017.027.015.026Zm-.032-.053-.033-.054.016.027.017.027Zm-.033-.054-.032-.053.015.025.017.028Zm-.064-.1-.033-.053.012.02.021.033Zm-.033-.053-.034-.051.012.017.022.034Zm-.034-.051-.034-.05.011.014.023.036Zm-.034-.05-.034-.05.009.012.025.038Zm-.069-.1-.071-.1,0,.007.038.05.028.041Zm-.071-.1-.035-.049,0,.005.031.044Zm-.184-.237-.039-.046.037.043,0,0Zm-.039-.046-.038-.046.036.041,0,.005Zm-.077-.091-.039-.045.032.037.007.008Zm-.079-.089-.041-.044.03.033.011.011Zm-.041-.044-.041-.044.03.032.011.012Zm-.041-.044-.04-.042.027.029.013.013Zm-22.619,4.062h14.432l.234,0,.116,0c.209.006.4.016.586.033a5.818,5.818,0,0,1,.7.106h0l.007,0,.011,0h.007l.006,0,.006,0h.006l.005,0h.007l.006,0h.012l0,0h0l.006,0h0l.007,0h0l.013,0h0l0,0h.012l.006,0,0,0,0,0h.012l.007,0h0l.006,0,.006,0,0,0,.072.021.035.011.016.006.006,0h0l.006,0,.043.014,0,0,0,0,.006,0,0,0,.01,0,0,0,0,0,0,0h.006l0,0h0l.006,0,0,0h0l.006,0,0,0,0,0,.064.025.023.01,0,0,.007,0,0,0h0l0,0,0,0,.018.008,0,0,0,0,.011.006h.008l0,0,0,0h.007l0,0h0l0,0,.056.03.056.031h0l0,0,0,0,0,0,.02.013.005,0,0,0,0,0,0,0h0l0,0,0,0,.006,0,0,0,0,0h0l0,0,.005,0,0,0,0,0,0,0h0l0,0,0,0,.01.006,0,0,0,0h0l.046.034h0l.047.037h0l.066.058c.573.526.682,1.4.682,2.721,0,.081,0,.162,0,.238l0,.046,0,.068,0,.022v.044l0,.014v.019a3.381,3.381,0,0,1-.194.967l0,0-.006.015-.005.015a1.707,1.707,0,0,1-.726.869,4.394,4.394,0,0,1-2,.415H256.833v-6.1Zm16.8,5.71-.024.013h0l.024-.013Zm-.1.051-.026.012h0l.026-.011Zm-.026.012-.025.011h0l.025-.011Zm-.05.024-.025.011h0l.025-.01Zm-.025.011-.027.01h0l.027-.01Zm-.027.01-.026.011h0l.026-.011Zm-.026.011-.027.011h0l.027-.011Zm-.027.011-.027.01h0l.027-.009Zm-.027.01-.026.01h0l.026-.01Zm-.026.01-.029.01h0l.029-.01Zm-.029.01-.027.01h0l.027-.01Zm-.113.037-.028.009h0l.028-.009Zm-.028.009-.03.008h0l.03-.008Zm-.059.017-.03.007h0l.03-.007Zm-.03.007-.03.009v0l.03-.007Zm-.093.023-.03.007h0l.03-.007Zm-.03.007-.032.008h0l.032-.007Zm-.032.008-.032.005h0l.032-.005Zm-.032.005-.032.008h0l.032-.007Zm-.032.008-.033.006h0l.033-.006Zm-.1.018-.033.006h0l.033-.006Zm-.1.016-.034.006h0l.034-.006Zm-.07.011-.033,0h0l.033,0Zm-.07.008-.034.005h0l.034-.005Zm-.071.01-.036,0h0l.036,0Zm-.072.007-.037,0h0l.037,0Zm-.074.007-.038,0h0l.038,0Zm8.653,5.2a4.616,4.616,0,0,1,.5,1.271l-.5-1.271Zm-1.549-1.538a4.593,4.593,0,0,0,.5-.38,3.643,3.643,0,0,0,1.067-1.565c.034-.1.066-.2.1-.3l-.006.019-1.662,2.231Zm1.319-11.837-.016-.036.016.036Zm-9.076,2.115a3.811,3.811,0,0,1,2.289.6l.042.036-.066-.058-2.265-.579Zm2.041.423-.056-.031h0l-.056-.03h0l.112.061Zm-.209-.107-.023-.009h0l-.064-.025h0l.087.035Zm-.237-.09-.016-.006h0l-.035-.011h0l-.072-.021h0l.123.038Zm1.411,3.416,0,.089,0-.021,0-.068Zm-.009.167a3.419,3.419,0,0,1-.2.985l.2-.985ZM65.976,78v5.631H59.21V79.405q0-3.871-4.614-3.871H41.259v8.095h-6.8V56.487H55.417q5.514,0,7.9,1.994T65.7,65.169v1.878a11.826,11.826,0,0,1-.45,3.714,3.853,3.853,0,0,1-1.779,2.074,3.244,3.244,0,0,1,1.877,1.623A7.858,7.858,0,0,1,65.976,78ZM58.937,66.342V65.8a2.774,2.774,0,0,0-.724-2.21,4.234,4.234,0,0,0-2.639-.606H41.142v6.1H55.73a4,4,0,0,0,2.5-.587,2.7,2.7,0,0,0,.7-2.151Zm24.209-9.855H93.823l14.549,27.142h-7.9L97.03,77.1H79.9l-3.442,6.531h-7.9L83.146,56.487Zm5.593,5.084h-.313L82.834,71.662H94.1L88.739,61.571Zm41.925-5.084q6.611,0,9.23,2.366t2.621,8.428v5.241q0,6.492-2.366,8.82t-8.9,2.326H110.68V56.487Zm-1.056,21.745q3.717,0,4.928-1.213t1.214-4.81V67.672q0-3.246-1.214-4.459-1.327-1.329-4.928-1.33H117.484V78.232Zm17.874-21.745h28.863v5.4H154.208V66.89h21.433v5.436H154.208v5.866h22.137v5.437H147.482V56.487ZM312.054,75.449l0,0h0l0,0Zm.047-.127,0-.005v0h0v0h0l0,0Zm0-.013v0Zm.013-.038v0Zm0,0v0Zm0,0v0l0,0,0-.005v-.008h0v0h0v.006l0,0h0l0,0h0v0Zm-.026.073,0,0,0,0Z" fill="#107d48"/><path d="M318.336,84.359a21.589,21.589,0,0,1-7.706,1.682h-4.148q-.527,1.86-1.167,3.667a59,59,0,0,1-111.2,0H182.529a70.021,70.021,0,0,0,128.35,14.355q-.252.453-.512.9a69.7,69.7,0,0,0,7.969-20.605Z" fill="#323167"/><path d="M319.37,68.933v-.2q0-7.472-2.757-9.915l-.139-.118-.026-.022c-.046-.037-.092-.073-.139-.108l-.027-.019c-.05-.038-.1-.076-.154-.112l-.013-.009q-2.844-1.964-10.236-2.052c-2.337-.057-4.682-.005-6.691-.005q-8.29,0-10.891,2.445l-.1.1a8.528,8.528,0,0,0-2.054,4.541,28.25,28.25,0,0,0-.445,5.392v.136c-.015,1.128,0,2.256,0,3.344q.035,6.876,2.619,9.074c.1.08.2.159.3.235l.013.009q2.607,1.87,9.579,1.978c2.4.066,4.823.007,6.847.007q8.916,0,11.615-2.112c.04-.031.08-.064.119-.1l.034-.029.01-.009.079-.07,0,0a7.82,7.82,0,0,0,2.073-4.487l0-.031.007-.035a26.034,26.034,0,0,0,.368-4.432l0-.313v-.091C319.383,70.886,319.372,69.871,319.37,68.933Zm-6.805,2.729-.01.664-.412,2.875,0,0v.01l0,0v0l-.019.056v.01l0,.012v0l0,0v0l0,.014,0,.005,0,0,0,.007h0l0,0v0l0,0,0,.007,0,.007,0,0v0h0v.009l-.826,1.247c-.874.678-3.143.928-5.556,1.01h-.017q-.36.006-.742.006h-5.4q-4.536,0-5.788-1.1l-.07-.064h0c-.84-.811-1.1-2.487-1.174-4.181l-.007-.525V68.962q0-4.145,1.272-5.3c.859-.781,3.058-1.059,5.381-1.148q.321-.006.661-.006h5.007q5.044,0,6.393,1.115c.9.747,1.234,2.578,1.338,4.506q.012.345.012.716Z" fill="#323167"/></svg>